Coordinates
nRows=11
nColumns=24

# SIMM Motion File Header:
name Coordinates
datacolumns 24
datarows 11
otherdata 1
range 1.19199999999999990000 1.20200000000000000000
endheader
time	pelvis_tx	pelvis_ty	pelvis_tz	pelvis_tilt	pelvis_list	pelvis_rotation	hip_flexion_r	hip_adduction_r	hip_rotation_r	knee_angle_r	ankle_angle_r	subtalar_angle_r	mtp_angle_r	hip_flexion_l	hip_adduction_l	hip_rotation_l	knee_angle_l	ankle_angle_l	subtalar_angle_l	mtp_angle_l	lumbar_extension	lumbar_bending	lumbar_rotation
      1.19199999999999990000	      0.61799557579658349000	      0.81996930147419833000	     -0.27287076069169530000	     -5.43393147536343160000	     -1.74669684566501960000	      1.88975743365368490000	     20.87563999546482000000	      3.41635048995404000000	      5.37413567271312950000	     -2.49946358300565620000	    -11.81177756432497900000	     -0.00000000000003908008	      0.00000000000004173252	     -8.72938929404618950000	      0.06461728478547253100	     -0.87505625557049049000	    -14.35134742994336100000	      3.10826084140074550000	      0.00000000000026416720	     -0.00000000000043179200	     10.55758996937178800000	      1.12300516303660250000	      7.14216999379436950000
      1.19300000000000010000	      0.61862787606543379000	      0.82004927056490762000	     -0.27276514963284032000	     -5.42550480933725510000	     -1.76286645445483760000	      1.88902113823849090000	     20.80279469764114700000	      3.44351059923681870000	      5.33622239419376050000	     -2.47240060312401290000	    -11.78019661311156700000	     -0.00000000000003906130	      0.00000000000004179447	     -8.71007275743043150000	      0.02882085294899465800	     -0.88123844309632005000	    -14.47678210482589000000	      3.01786659095236100000	      0.00000000000026474584	     -0.00000000000043241413	     10.55420600108685200000	      1.14674960832682940000	      7.13581087493115170000
      1.19400000000000000000	      0.61926000351404775000	      0.82012918970030957000	     -0.27265941007117339000	     -5.41704895040052210000	     -1.77889906376091720000	      1.88834982532106750000	     20.72996678313935700000	      3.47055222387831510000	      5.29839585591852740000	     -2.44544338532556260000	    -11.74853916454718900000	     -0.00000000000003904983	      0.00000000000004186444	     -8.69043187976588350000	     -0.00692894455572614160	     -0.88726644202699423000	    -14.60274249062886500000	      2.92772270392916620000	      0.00000000000026532621	     -0.00000000000043302333	     10.55079628357277600000	      1.17023735850681440000	      7.12961917209499680000
      1.19500000000000010000	      0.61989195459585267000	      0.82020899617471266000	     -0.27255357680432973000	     -5.40859493638720230000	     -1.79481744445805820000	      1.88775758183661240000	     20.65718462662748000000	      3.49748739773753890000	      5.26062190619984270000	     -2.41857066702222980000	    -11.71684245358387200000	     -0.00000000000003903631	      0.00000000000004192950	     -8.67044806322240010000	     -0.04264858323444287900	     -0.89311618910546353000	    -14.72923981302496800000	      2.83839089126186740000	      0.00000000000026590195	     -0.00000000000043360196	     10.54739581523637800000	      1.19349608794857050000	      7.12355914969805770000
      1.19600000000000000000	      0.62052337657722967000	      0.82028846466611927000	     -0.27244746242195611000	     -5.40014645714412910000	     -1.81039313932836230000	      1.88740254665106750000	     20.58453974408540400000	      3.52410321924991530000	      5.22300572215084100000	     -2.39195144720427870000	    -11.68502795542377000000	     -0.00000000000003901663	      0.00000000000004197983	     -8.64943543004211610000	     -0.07827774543511391300	     -0.89843118062730243000	    -14.85734794520037200000	      2.75149530166238380000	      0.00000000000026646385	     -0.00000000000043408886	     10.54402309443301700000	      1.21606775517560560000	      7.11789416861878090000
      1.19700000000000010000	      0.62115460762903907000	      0.82036777670375771000	     -0.27234123619693923000	     -5.39171903411816180000	     -1.82583798732142430000	      1.88711998055171690000	     20.51196734748123500000	      3.55059593060912970000	      5.18547052228233340000	     -2.36541956698657430000	    -11.65318141513724900000	     -0.00000000000003899686	      0.00000000000004202035	     -8.62805549888291350000	     -0.11386232761158235000	     -0.90357479079145597000	    -14.98599771897786000000	      2.66537501780125030000	      0.00000000000026702442	     -0.00000000000043457478	     10.54068010885331800000	      1.23838844843045080000	      7.11237248134260010000
      1.19800000000000000000	      0.62178526589214533000	      0.82044661938009134000	     -0.27223467444399269000	     -5.38335477974352190000	     -1.84089029468274460000	      1.88705482171095040000	     20.43961240869085200000	      3.57671931150883230000	      5.14817827495534530000	     -2.33914970556963460000	    -11.62123874847151100000	     -0.00000000000003897682	      0.00000000000004203143	     -8.60557367378697610000	     -0.14931316971541067000	     -0.90820425688254625000	    -15.11627241756149700000	      2.58158065115525930000	      0.00000000000026758097	     -0.00000000000043505778	     10.53742632894460500000	      1.25995621976870290000	      7.10728067547571740000
      1.19900000000000010000	      0.62241592415525182000	      0.82052546205642496000	     -0.27212811269104620000	     -5.37499052536888030000	     -1.85594260204406790000	      1.88698966287018410000	     20.36725746990045500000	      3.60284269240854020000	      5.11088602762834920000	     -2.31287984415268920000	    -11.58929608180576500000	     -0.00000000000003895679	      0.00000000000004204251	     -8.58309184869103170000	     -0.18476401181924682000	     -0.91283372297363741000	    -15.24654711614516100000	      2.49778628450924960000	      0.00000000000026813752	     -0.00000000000043554079	     10.53417254903589200000	      1.28152399110695980000	      7.10218886960883470000
      1.20000000000000000000	      0.62304594759545961000	      0.82060382950097566000	     -0.27202107075553861000	     -5.36664949999806760000	     -1.87041952079336920000	      1.88711681165940190000	     20.29510072771400400000	      3.62842197168047240000	      5.07406864952509730000	     -2.28689882202932630000	    -11.55725162807225500000	     -0.00000000000003893034	      0.00000000000004206389	     -8.55948184284356550000	     -0.21994376040666386000	     -0.91699007552184297000	    -15.37842708686467800000	      2.41436364961141340000	      0.00000000000026866451	     -0.00000000000043594954	     10.53095456206570700000	      1.30209327954697220000	      7.09765519327931750000
      1.20100000000000010000	      0.62367575942803488000	      0.82068203853493205000	     -0.27191386875917728000	     -5.35831621762852790000	     -1.88470464333866540000	      1.88730806299194850000	     20.22301005106218200000	      3.65381988374315190000	      5.03740956116308420000	     -2.26101407967048340000	    -11.52517324531615000000	     -0.00000000000003890175	      0.00000000000004208870	     -8.53549577674558260000	     -0.25503314448861730000	     -0.92098872355575290000	    -15.51084214829618800000	      2.33106492529627780000	      0.00000000000026918164	     -0.00000000000043633355	     10.52774850607503200000	      1.32232974035423910000	      7.09330756012892220000
      1.20200000000000000000	      0.62430537853986190000	      0.82076013860467778000	     -0.27180647869616759000	     -5.34995521491830320000	     -1.89876394915464000000	      1.88755534330890650000	     20.15093858826180900000	      3.67900307969690890000	      5.00094518529514430000	     -2.23520360000033860000	    -11.49308832577785100000	     -0.00000000000003887551	      0.00000000000004211497	     -8.51119511036283250000	     -0.29001099396788571000	     -0.92486695075747016000	    -15.64369018171669100000	      2.24683058056812790000	      0.00000000000026969124	     -0.00000000000043670767	     10.52451296468685400000	      1.34219260710662640000	      7.08916206505313970000
